<mxfile host="app.diagrams.net" modified="2023-11-09T09:52:06.892Z" agent="Mozilla/5.0 (X11; Ubuntu; Linux x86_64; rv:109.0) Gecko/20100101 Firefox/113.0" etag="rh0bB69oQYXIhRf34OkU" version="22.1.0" type="device">
  <diagram name="node diagram" id="T2Ms4bbw__7NUeO2WZv9">
    <mxGraphModel dx="1362" dy="795" grid="1" gridSize="10" guides="1" tooltips="1" connect="1" arrows="1" fold="1" page="1" pageScale="1" pageWidth="1169" pageHeight="827" math="0" shadow="0">
      <root>
        <mxCell id="0" />
        <mxCell id="1" parent="0" />
        <mxCell id="H9FBobJJ-5J-kB2_eBEH-12" value="" style="rounded=0;whiteSpace=wrap;html=1;fillColor=none;" vertex="1" parent="1">
          <mxGeometry x="400" y="20" width="720" height="500" as="geometry" />
        </mxCell>
        <mxCell id="H9FBobJJ-5J-kB2_eBEH-18" style="edgeStyle=orthogonalEdgeStyle;rounded=0;orthogonalLoop=1;jettySize=auto;html=1;exitX=0.5;exitY=1;exitDx=0;exitDy=0;entryX=0.5;entryY=0;entryDx=0;entryDy=0;" edge="1" parent="1" source="H9FBobJJ-5J-kB2_eBEH-1" target="H9FBobJJ-5J-kB2_eBEH-2">
          <mxGeometry relative="1" as="geometry" />
        </mxCell>
        <mxCell id="H9FBobJJ-5J-kB2_eBEH-19" style="edgeStyle=orthogonalEdgeStyle;rounded=0;orthogonalLoop=1;jettySize=auto;html=1;exitX=0.75;exitY=1;exitDx=0;exitDy=0;entryX=0.75;entryY=0;entryDx=0;entryDy=0;" edge="1" parent="1" source="H9FBobJJ-5J-kB2_eBEH-1" target="H9FBobJJ-5J-kB2_eBEH-2">
          <mxGeometry relative="1" as="geometry" />
        </mxCell>
        <mxCell id="H9FBobJJ-5J-kB2_eBEH-1" value="rs2 camera" style="rounded=0;whiteSpace=wrap;html=1;fillColor=#dae8fc;strokeColor=#6c8ebf;" vertex="1" parent="1">
          <mxGeometry x="480" y="80" width="200" height="80" as="geometry" />
        </mxCell>
        <mxCell id="H9FBobJJ-5J-kB2_eBEH-2" value="mecanum controller" style="rounded=0;whiteSpace=wrap;html=1;fillColor=#e1d5e7;strokeColor=#9673a6;" vertex="1" parent="1">
          <mxGeometry x="480" y="240" width="200" height="80" as="geometry" />
        </mxCell>
        <mxCell id="H9FBobJJ-5J-kB2_eBEH-3" value="mecanum driver" style="rounded=0;whiteSpace=wrap;html=1;fillColor=#f8cecc;strokeColor=#b85450;" vertex="1" parent="1">
          <mxGeometry x="480" y="400" width="200" height="80" as="geometry" />
        </mxCell>
        <mxCell id="H9FBobJJ-5J-kB2_eBEH-4" value="" style="endArrow=classic;html=1;rounded=0;exitX=0.25;exitY=1;exitDx=0;exitDy=0;entryX=0.25;entryY=0;entryDx=0;entryDy=0;" edge="1" parent="1" source="H9FBobJJ-5J-kB2_eBEH-1" target="H9FBobJJ-5J-kB2_eBEH-2">
          <mxGeometry width="50" height="50" relative="1" as="geometry">
            <mxPoint x="670" y="480" as="sourcePoint" />
            <mxPoint x="720" y="430" as="targetPoint" />
          </mxGeometry>
        </mxCell>
        <mxCell id="H9FBobJJ-5J-kB2_eBEH-5" value="" style="endArrow=classic;html=1;rounded=0;exitX=0.25;exitY=1;exitDx=0;exitDy=0;entryX=0.25;entryY=0;entryDx=0;entryDy=0;" edge="1" parent="1" source="H9FBobJJ-5J-kB2_eBEH-2" target="H9FBobJJ-5J-kB2_eBEH-3">
          <mxGeometry width="50" height="50" relative="1" as="geometry">
            <mxPoint x="670" y="480" as="sourcePoint" />
            <mxPoint x="720" y="430" as="targetPoint" />
          </mxGeometry>
        </mxCell>
        <mxCell id="H9FBobJJ-5J-kB2_eBEH-8" value="mecanum robot:&lt;br&gt;- Arduino controller&lt;br&gt;- realsense camera" style="rounded=0;whiteSpace=wrap;html=1;fillColor=#d5e8d4;strokeColor=#82b366;" vertex="1" parent="1">
          <mxGeometry x="120" y="240" width="240" height="80" as="geometry" />
        </mxCell>
        <mxCell id="H9FBobJJ-5J-kB2_eBEH-9" value="" style="endArrow=classic;html=1;rounded=0;exitX=0;exitY=0.5;exitDx=0;exitDy=0;entryX=0.5;entryY=1;entryDx=0;entryDy=0;" edge="1" parent="1" source="H9FBobJJ-5J-kB2_eBEH-3" target="H9FBobJJ-5J-kB2_eBEH-8">
          <mxGeometry width="50" height="50" relative="1" as="geometry">
            <mxPoint x="410" y="360" as="sourcePoint" />
            <mxPoint x="460" y="310" as="targetPoint" />
          </mxGeometry>
        </mxCell>
        <mxCell id="H9FBobJJ-5J-kB2_eBEH-11" value="" style="endArrow=classic;html=1;rounded=0;exitX=0.5;exitY=0;exitDx=0;exitDy=0;entryX=0;entryY=0.5;entryDx=0;entryDy=0;" edge="1" parent="1" source="H9FBobJJ-5J-kB2_eBEH-8" target="H9FBobJJ-5J-kB2_eBEH-1">
          <mxGeometry width="50" height="50" relative="1" as="geometry">
            <mxPoint x="410" y="360" as="sourcePoint" />
            <mxPoint x="460" y="310" as="targetPoint" />
          </mxGeometry>
        </mxCell>
        <mxCell id="H9FBobJJ-5J-kB2_eBEH-13" value="&lt;b&gt;ROS system&lt;/b&gt;" style="text;html=1;strokeColor=none;fillColor=none;align=center;verticalAlign=middle;whiteSpace=wrap;rounded=0;" vertex="1" parent="1">
          <mxGeometry x="550" y="30" width="60" height="40" as="geometry" />
        </mxCell>
        <mxCell id="H9FBobJJ-5J-kB2_eBEH-14" value="realsense2_camera_msgs/RGBD" style="text;html=1;strokeColor=none;fillColor=none;align=left;verticalAlign=middle;whiteSpace=wrap;rounded=0;" vertex="1" parent="1">
          <mxGeometry x="640" y="170" width="180" height="20" as="geometry" />
        </mxCell>
        <mxCell id="H9FBobJJ-5J-kB2_eBEH-16" value="geometry_msgs/Twist" style="text;html=1;strokeColor=none;fillColor=none;align=left;verticalAlign=middle;whiteSpace=wrap;rounded=0;" vertex="1" parent="1">
          <mxGeometry x="540" y="330" width="180" height="20" as="geometry" />
        </mxCell>
        <mxCell id="H9FBobJJ-5J-kB2_eBEH-17" value="v - velocity magnitude&lt;br&gt;rho - velocity angle (90 deg is forward, 0 is right, 180 is left I assume)&lt;br&gt;&lt;br&gt;omega - rotational velocity value&lt;br&gt;&lt;br&gt;we can either move based on velocity vector or rotational velocity value" style="text;html=1;strokeColor=none;fillColor=none;align=left;verticalAlign=middle;whiteSpace=wrap;rounded=0;" vertex="1" parent="1">
          <mxGeometry x="860" y="340" width="240" height="160" as="geometry" />
        </mxCell>
        <mxCell id="H9FBobJJ-5J-kB2_eBEH-20" value="sensor_msgs/Imu" style="text;html=1;strokeColor=none;fillColor=none;align=left;verticalAlign=middle;whiteSpace=wrap;rounded=0;" vertex="1" parent="1">
          <mxGeometry x="640" y="190" width="180" height="20" as="geometry" />
        </mxCell>
        <mxCell id="H9FBobJJ-5J-kB2_eBEH-21" value="UART" style="text;html=1;strokeColor=none;fillColor=none;align=center;verticalAlign=middle;whiteSpace=wrap;rounded=0;" vertex="1" parent="1">
          <mxGeometry x="280" y="370" width="60" height="30" as="geometry" />
        </mxCell>
        <mxCell id="H9FBobJJ-5J-kB2_eBEH-22" value="UART" style="text;html=1;strokeColor=none;fillColor=none;align=center;verticalAlign=middle;whiteSpace=wrap;rounded=0;" vertex="1" parent="1">
          <mxGeometry x="280" y="160" width="60" height="30" as="geometry" />
        </mxCell>
      </root>
    </mxGraphModel>
  </diagram>
</mxfile>
